<svg width="800" height="800" viewBox="0 0 800 800" fill="none" xmlns="http://www.w3.org/2000/svg">
<g clip-path="url(#clip0_263_93)">
<path d="M400 800C620.914 800 800 620.914 800 400C800 179.086 620.914 0 400 0C179.086 0 0 179.086 0 400C0 620.914 179.086 800 400 800Z" fill="url(#paint0_linear_263_93)"/>
<g opacity="0.2">
<path d="M531.251 549.999C522.501 549.999 515 546.249 510 537.499C502.5 526.249 506.251 509.999 518.751 502.499L645 424.999C645 424.999 645 424.999 645 423.749C645 422.499 645 423.749 645 422.499L518.751 344.999C507.501 337.499 503.75 322.499 510 309.999C517.5 298.749 532.5 294.999 545 301.249L677.501 383.749L680.001 386.249C690.001 396.249 695 409.999 695 423.749C695 437.499 690.001 451.249 680.001 461.249L677.501 463.749L545 546.249C540 548.749 535.001 549.999 531.251 549.999Z" fill="#231F20"/>
<path d="M268.75 549.999C263.75 549.999 260 548.749 256.25 546.249L123.75 463.749L121.25 462.499C111.25 452.499 106.25 438.749 106.25 424.999C106.25 411.249 111.25 397.499 121.25 387.499L123.75 384.999L256.25 302.499C267.5 294.999 283.75 298.749 291.25 311.249C298.75 322.499 295 338.749 282.5 346.249L156.25 423.749C156.25 423.749 156.25 423.749 156.25 424.999C156.25 426.249 156.25 424.999 156.25 426.249L282.5 503.749C293.75 511.249 297.5 526.249 291.25 538.749C286.25 546.249 277.5 549.999 268.75 549.999Z" fill="#231F20"/>
</g>
<g opacity="0.2">
<path d="M318.751 662.501C316.251 662.501 312.501 662.501 310.001 661.251C297.501 656.251 291.251 641.251 295.001 628.751L457.501 203.751C462.501 191.251 477.501 185.001 490.001 188.751C502.501 193.751 508.751 208.751 505.001 221.251L342.501 646.251C338.751 656.251 328.751 662.501 318.751 662.501Z" fill="#231F20"/>
</g>
<path d="M531.251 525.001C522.501 525.001 515 521.251 510 512.501C502.5 501.251 506.251 485.001 518.751 477.501L645 400.001V398.751L518.751 321.251C507.501 313.751 503.75 298.751 510 286.251C517.5 275.001 532.5 271.251 545 277.501L677.501 360.001L680.001 362.501C700.001 382.501 700.001 416.251 680.001 437.501L677.501 440.001L545 522.501C540 523.751 535.001 525.001 531.251 525.001Z" fill="white"/>
<path d="M268.75 525C263.75 525 260 523.75 256.25 521.25L123.75 438.75L121.25 437.5C101.25 417.5 101.25 383.75 121.25 362.5L123.75 360L256.25 277.501C267.5 270.001 283.75 273.75 291.25 286.25C298.75 297.5 295 313.751 282.5 321.251L156.25 398.75V400L282.5 477.5C293.75 485 297.5 500 291.25 512.5C286.25 521.25 277.5 525 268.75 525Z" fill="white"/>
<path d="M318.751 637.501C316.251 637.501 312.501 637.501 310.001 636.251C297.501 631.251 291.251 616.251 295.001 603.751L457.501 178.751C462.501 166.251 477.501 160.001 490.001 163.751C502.501 168.751 508.751 183.751 505.001 196.251L342.501 621.251C338.751 631.251 328.751 637.501 318.751 637.501Z" fill="white"/>
</g>
<defs>
<linearGradient id="paint0_linear_263_93" x1="400" y1="0" x2="400" y2="800" gradientUnits="userSpaceOnUse">
<stop offset="0.1" stop-color="#7989DE"/>
<stop offset="1" stop-color="#F62423" stop-opacity="0.44"/>
</linearGradient>
<clipPath id="clip0_263_93">
<rect width="800" height="800" fill="white"/>
</clipPath>
</defs>
</svg>
